<?xml version="1.0" standalone="no"?>
<!DOCTYPE svg PUBLIC "-//W3C//DTD SVG 20010904//EN"
 "http://www.w3.org/TR/2001/REC-SVG-20010904/DTD/svg10.dtd">
<svg version="1.0" xmlns="http://www.w3.org/2000/svg"
 width="2000.000000pt" height="2000.000000pt" viewBox="0 0 2000.000000 2000.000000"
 preserveAspectRatio="xMidYMid meet">

<g transform="translate(0.000000,2000.000000) scale(0.100000,-0.100000)"
fill="#000000" stroke="none">
<path d="M16120 15989 c0 -11 5 -17 10 -14 6 3 10 13 10 21 0 8 -4 14 -10 14
-5 0 -10 -9 -10 -21z"/>
<path d="M16140 15870 c0 -16 7 -101 15 -187 60 -645 130 -2404 150 -3758 3
-209 8 -438 10 -510 8 -194 7 -1994 -1 -2054 -5 -37 -11 -51 -23 -52 -33 -3
-95 2 -100 7 -3 3 11 89 32 192 56 274 51 405 -18 542 -27 54 -101 125 -151
146 -20 8 -51 30 -69 49 -34 33 -60 42 -181 60 -40 6 -42 8 -48 48 -3 23 -8
103 -11 177 -3 74 -8 154 -11 176 -5 41 -5 42 -42 37 -20 -3 -42 -11 -48 -19
-7 -8 -29 -14 -58 -14 -41 0 -48 3 -59 27 -6 16 -23 38 -36 49 -35 30 -34 84
2 122 15 15 27 38 27 49 0 12 11 30 25 41 23 18 26 29 32 115 6 94 -1 167 -16
167 -5 0 -11 -37 -13 -83 -8 -129 -42 -173 -122 -160 -67 11 -80 37 -91 191
-12 158 -3 258 25 286 12 13 37 21 73 24 46 4 58 1 75 -16 26 -26 42 -82 42
-149 0 -49 2 -53 24 -53 13 0 27 -7 30 -16 3 -9 6 -75 6 -148 0 -126 1 -134
23 -154 13 -12 29 -22 36 -22 15 0 13 10 -19 130 -11 41 -27 147 -36 235 -18
186 -30 217 -113 303 -87 89 -101 111 -101 157 0 29 9 56 30 89 31 48 32 73 6
105 -14 18 -12 243 2 286 9 24 10 16 7 -45 -2 -41 -7 -88 -10 -103 -8 -32 18
-112 39 -120 31 -12 41 11 41 95 0 56 6 94 17 118 l16 35 -1 -70 c-2 -65 0
-70 20 -73 18 -3 23 3 29 32 7 39 24 49 24 16 0 -30 46 -72 73 -68 25 3 36 43
18 61 -12 12 -13 124 -2 172 l7 30 12 -40 c7 -22 12 -56 12 -75 0 -33 14 -60
31 -60 18 0 39 34 39 63 0 18 -9 79 -20 136 -11 57 -18 106 -16 108 3 3 11 -8
19 -24 8 -15 27 -39 41 -52 21 -20 28 -22 41 -11 21 18 19 37 -15 104 -37 72
-38 85 -6 79 18 -4 26 0 31 17 5 17 -4 32 -43 73 -27 29 -55 63 -62 76 -20 38
-70 193 -70 217 0 53 -43 156 -95 229 -31 42 -62 89 -70 104 -18 35 -74 85
-124 111 l-39 19 -6 -32 c-36 -197 -146 -1251 -131 -1265 2 -2 6 10 10 27 10
46 20 37 21 -19 0 -47 8 -70 19 -59 2 3 9 38 15 79 6 41 12 75 13 77 2 1 12 0
24 -3 20 -5 21 -12 20 -93 l-2 -88 -49 5 c-46 4 -49 3 -40 -14 10 -21 9 -54
-4 -279 -9 -164 -18 -208 -46 -218 -11 -5 -16 -20 -16 -51 0 -42 1 -44 34 -50
30 -6 34 -11 40 -49 4 -23 6 -175 5 -337 -2 -162 -3 -337 -3 -389 l-1 -94 49
-12 c57 -15 76 -35 76 -81 0 -44 -53 -100 -102 -109 -40 -8 -48 -27 -48 -114
0 -26 -5 -52 -12 -59 -14 -14 -96 -16 -117 -3 -9 6 -18 43 -24 104 l-11 96
-75 19 c-42 11 -99 23 -126 26 -86 10 -322 74 -503 135 -154 53 -173 57 -181
42 -21 -38 -98 -240 -111 -286 -7 -27 -31 -92 -53 -144 l-40 -93 -36 6 c-223
37 -370 29 -481 -27 -77 -38 -117 -86 -187 -224 -39 -77 -46 -101 -47 -150 0
-79 23 -123 114 -213 106 -106 174 -139 370 -179 55 -11 -890 -17 -1830 -13
l-655 4 -41 42 c-38 38 -43 50 -59 136 -25 133 -23 343 3 475 11 55 23 108 27
118 9 22 13 22 -208 -3 -305 -34 -596 -80 -699 -110 -98 -30 -122 -54 -157
-163 -60 -189 -60 -184 -2 -459 241 -1131 231 -1082 214 -1095 -9 -7 -21 -14
-27 -16 -13 -5 19 -140 42 -174 19 -30 34 -29 242 12 354 70 380 77 380 99 0
18 -7 52 -35 174 -5 21 -10 23 -44 17 l-38 -6 -12 113 c-6 62 -22 181 -36 263
-13 83 -26 170 -27 195 l-3 45 442 0 443 0 0 -836 0 -837 23 -6 c31 -8 278 -6
300 3 10 4 18 10 18 14 -1 4 -1 378 -1 832 l0 825 1779 0 1779 0 6 -97 c11
-165 37 -501 50 -638 l12 -130 -26 -7 c-34 -10 -50 -35 -50 -80 0 -28 6 -41
23 -52 22 -14 124 -29 287 -41 106 -8 117 -1 126 78 6 54 5 59 -15 64 -26 7
-26 15 -1 89 49 141 152 591 175 767 l6 47 75 0 75 0 -6 -72 c-8 -110 -23
-585 -36 -1143 -17 -730 -5 -2103 27 -3230 5 -202 4 -238 -7 -229 -8 7 -25 10
-39 9 -19 -1 -25 -8 -24 -23 0 -12 -3 -22 -8 -22 -4 0 -8 -9 -8 -20 0 -26 47
-28 67 -3 8 11 11 12 7 3 -7 -13 -6 -13 10 0 21 16 21 -91 -4 1150 -13 613
-13 2008 0 2430 13 448 39 1077 46 1118 l5 32 1023 0 1023 0 7 56 c6 52 1 179
-10 252 l-5 33 -262 -1 c-324 -1 -295 -2 -278 9 19 12 36 98 61 301 20 160 24
177 46 193 19 15 24 28 24 63 0 32 -4 44 -15 44 -18 0 -19 -21 5 238 42 459
41 478 -8 476 -11 0 -18 4 -15 9 4 6 -5 8 -20 5 -15 -3 -24 -2 -22 2 3 4 -14
12 -36 18 -33 8 -39 8 -35 -3 2 -7 -1 -16 -8 -18 -9 -4 -12 1 -9 13 4 16 -5
19 -84 27 -147 14 -841 10 -891 -5 -23 -7 -40 -17 -37 -22 3 -6 -1 -7 -10 -4
-19 8 -69 -42 -59 -58 4 -6 2 -8 -3 -5 -6 4 -14 0 -17 -9 -9 -23 -7 -226 2
-221 4 3 8 -43 10 -102 6 -252 65 -905 84 -928 6 -7 17 -13 26 -13 8 0 13 -2
10 -5 -5 -6 -478 -8 -483 -3 -2 2 4 161 12 353 20 439 22 1399 5 1890 -41
1166 -72 1953 -92 2385 -46 969 -62 1247 -90 1644 -11 148 -20 279 -20 292 0
13 -4 24 -10 24 -5 0 -10 -13 -10 -30z m1827 -5327 c-3 -10 -5 -4 -5 12 0 17
2 24 5 18 2 -7 2 -21 0 -30z m-20 -295 c-3 -7 -5 -2 -5 12 0 14 2 19 5 13 2
-7 2 -19 0 -25z m-1220 -75 c-3 -10 -5 -2 -5 17 0 19 2 27 5 18 2 -10 2 -26 0
-35z m1170 -425 c-3 -8 -6 -5 -6 6 -1 11 2 17 5 13 3 -3 4 -12 1 -19z m-1107
-243 c0 -5 -5 -3 -10 5 -5 8 -10 20 -10 25 0 6 5 3 10 -5 5 -8 10 -19 10 -25z
m-1235 -120 l0 -75 -67 0 -68 0 0 65 c0 59 2 65 23 69 117 26 112 28 112 -59z
m1262 -41 c-3 -3 -12 -4 -19 -1 -8 3 -5 6 6 6 11 1 17 -2 13 -5z m50 -10 c-3
-3 -12 -4 -19 -1 -8 3 -5 6 6 6 11 1 17 -2 13 -5z m-577 -5064 c0 -5 -10 -10
-22 -9 -22 0 -22 1 -3 9 11 5 21 9 23 9 1 1 2 -3 2 -9z m-45 -30 c-3 -5 -12
-10 -18 -10 -7 0 -6 4 3 10 19 12 23 12 15 0z"/>
<path d="M3952 15408 c-16 -16 -15 -23 4 -42 18 -19 80 -21 87 -3 4 8 8 9 14
1 4 -5 88 -15 188 -22 992 -64 2083 -441 3192 -1103 1008 -602 1935 -1417
2689 -2364 118 -148 164 -219 164 -253 0 -11 -20 -26 -53 -42 -74 -36 -117
-101 -117 -179 0 -33 8 -73 20 -98 l19 -42 -52 -30 c-104 -60 -119 -97 -72
-179 16 -28 23 -52 19 -70 -4 -21 10 -51 60 -132 35 -58 75 -113 89 -123 23
-18 26 -18 56 -3 17 9 31 20 31 24 0 46 -98 239 -140 277 -12 11 -29 16 -46
12 -23 -4 -28 0 -45 38 -25 57 -14 82 58 130 l55 36 35 -40 c50 -59 111 -92
171 -93 58 0 94 17 141 66 l34 35 22 -29 22 -29 22 29 c30 41 75 41 126 0 48
-38 57 -38 50 3 -12 64 -291 478 -351 519 -22 14 -46 38 -53 52 -8 14 -19 26
-26 28 -7 2 -57 59 -112 128 -648 815 -1432 1540 -2288 2116 -1135 764 -2267
1228 -3315 1358 -284 35 -673 49 -698 24z"/>
<path d="M4051 15324 c0 -11 3 -14 6 -6 3 7 2 16 -1 19 -3 4 -6 -2 -5 -13z"/>
<path d="M14807 13471 c-107 -35 -176 -99 -236 -219 -36 -72 -68 -194 -77
-300 -8 -83 -28 -117 -76 -130 -66 -17 -58 -78 9 -70 21 3 33 0 33 -8 0 -19
-40 -107 -57 -126 -8 -9 -13 -27 -11 -40 2 -18 9 -23 31 -23 15 1 27 -1 27 -4
0 -14 -58 -76 -91 -97 -30 -19 -39 -31 -37 -47 4 -30 28 -32 79 -8 24 12 46
21 51 21 15 0 8 -36 -17 -99 -28 -69 -23 -91 21 -91 21 0 24 -5 24 -35 0 -19
6 -38 14 -42 8 -4 18 -24 23 -43 10 -38 34 -50 60 -29 12 10 14 26 10 69 -3
30 -2 75 2 100 l7 45 23 -100 c29 -128 28 -125 46 -125 11 0 15 11 15 43 0 47
-42 344 -60 422 -15 67 5 333 30 390 10 22 20 47 23 55 6 17 10 -2 11 -65 1
-35 4 -40 27 -43 20 -2 31 5 50 32 13 20 29 36 35 36 6 0 15 -21 20 -47 10
-52 34 -74 62 -57 13 9 16 22 14 53 -3 31 0 41 11 41 10 0 19 23 29 73 l15 72
0 -95 c0 -116 6 -140 38 -140 13 0 27 5 30 10 4 6 9 53 12 105 2 52 8 107 13
122 8 26 9 24 11 -17 1 -25 1 -82 0 -126 -2 -48 2 -90 8 -103 12 -21 51 -30
51 -11 0 6 5 10 11 10 15 0 2 -100 -23 -174 -10 -32 -17 -65 -14 -72 8 -20 56
-17 71 3 12 16 14 13 20 -22 10 -51 24 -80 25 -47 0 55 53 517 81 715 17 120
28 221 24 225 -12 12 -178 7 -227 -7 -44 -12 -49 -12 -82 8 -49 31 -119 35
-189 12z m-42 -423 c-7 -33 -25 -62 -25 -41 0 15 21 73 27 73 2 0 2 -15 -2
-32z"/>
<path d="M11948 13403 c7 -3 16 -2 19 1 4 3 -2 6 -13 5 -11 0 -14 -3 -6 -6z"/>
<path d="M15145 12273 c-36 -82 -48 -199 -21 -209 33 -13 44 13 51 124 3 59 8
117 11 130 9 43 -11 21 -41 -45z"/>
<path d="M14694 12041 c-57 -26 -60 -36 -25 -71 35 -35 46 -81 38 -151 -7 -57
-112 -270 -213 -429 -50 -79 -72 -126 -89 -190 -13 -47 -37 -128 -54 -181 -17
-53 -31 -102 -31 -108 0 -27 239 -119 452 -175 54 -14 115 -37 137 -51 34 -21
53 -25 116 -25 l75 0 0 93 c0 50 5 225 10 387 9 241 13 296 25 303 10 5 15 24
15 57 l0 50 -52 0 c-57 0 -123 25 -149 56 -27 32 -39 83 -40 173 0 47 -6 129
-12 181 l-13 95 -74 2 c-56 2 -85 -2 -116 -16z"/>
<path d="M4054 10840 c0 -80 2 -112 3 -72 2 39 2 105 0 145 -1 39 -3 7 -3 -73z"/>
<path d="M10860 10814 c0 -5 15 -29 33 -52 l32 -44 72 -1 c65 -2 75 -5 103
-32 70 -67 91 -157 44 -194 -14 -11 -30 -22 -37 -24 -8 -3 -5 -12 10 -27 l21
-23 44 26 c78 46 78 43 -2 162 -78 113 -84 118 -210 164 -45 17 -89 36 -96 42
-8 6 -14 8 -14 3z"/>
<path d="M4044 10440 c0 -69 1 -97 3 -62 2 34 2 90 0 125 -2 34 -3 6 -3 -63z"/>
<path d="M4043 10260 c0 -30 2 -43 4 -27 2 15 2 39 0 55 -2 15 -4 2 -4 -28z"/>
<path d="M4043 10120 c0 -41 2 -58 4 -37 2 20 2 54 0 75 -2 20 -4 3 -4 -38z"/>
<path d="M4043 9560 c0 -25 2 -35 4 -22 2 12 2 32 0 45 -2 12 -4 2 -4 -23z"/>
<path d="M4044 9260 c0 -135 2 -190 3 -122 2 67 2 177 0 245 -1 67 -3 12 -3
-123z"/>
<path d="M4054 8600 c0 -69 1 -97 3 -62 2 34 2 90 0 125 -2 34 -3 6 -3 -63z"/>
<path d="M4061 8144 c0 -11 3 -14 6 -6 3 7 2 16 -1 19 -3 4 -6 -2 -5 -13z"/>
<path d="M3994 7320 c-3 -14 -7 -33 -9 -42 -2 -14 4 -18 26 -18 16 0 39 6 52
13 12 6 24 13 25 14 2 1 1 11 -3 23 -5 16 -12 19 -28 15 -17 -5 -19 -4 -7 4
17 12 17 12 -23 15 -22 1 -29 -3 -33 -24z"/>
<path d="M4077 7253 c-4 -3 -24 -9 -44 -13 -36 -7 -36 -8 -7 -9 16 0 39 6 50
14 10 8 16 15 13 15 -3 0 -9 -3 -12 -7z"/>
<path d="M16280 4210 c-8 -5 -10 -10 -5 -10 6 0 17 5 25 10 8 5 11 10 5 10 -5
0 -17 -5 -25 -10z"/>
<path d="M16228 4193 c6 -2 18 -2 25 0 6 3 1 5 -13 5 -14 0 -19 -2 -12 -5z"/>
</g>
</svg>
